<?xml version="1.0" standalone="no"?>
<!DOCTYPE svg PUBLIC "-//W3C//DTD SVG 20010904//EN"
 "http://www.w3.org/TR/2001/REC-SVG-20010904/DTD/svg10.dtd">
<svg version="1.0" xmlns="http://www.w3.org/2000/svg"
 width="540.000000pt" height="540.000000pt" viewBox="0 0 540.000000 540.000000"
 preserveAspectRatio="xMidYMid meet">
<metadata>
Created by potrace 1.14, written by Peter Selinger 2001-2017
</metadata>
<g transform="translate(0.000000,540.000000) scale(0.100000,-0.100000)"
fill="#000000" stroke="none">
<path d="M0 2700 l0 -2700 2700 0 2700 0 0 2700 0 2700 -2700 0 -2700 0 0
-2700z m1770 1136 l0 -73 -56 -7 c-107 -12 -160 -57 -171 -144 -8 -69 9 -118
174 -522 162 -394 240 -603 269 -717 l18 -72 42 127 c23 70 115 336 204 592
138 397 163 476 167 540 4 67 2 79 -19 109 -37 54 -69 72 -152 84 l-76 11 0
73 0 73 375 0 375 0 0 -75 c0 -69 -2 -75 -21 -75 -93 0 -163 -53 -210 -158
-16 -35 -164 -437 -328 -891 -317 -875 -355 -976 -420 -1112 -79 -168 -186
-302 -296 -371 -105 -66 -302 -108 -509 -108 l-117 0 3 83 3 82 96 7 c108 8
220 41 309 90 79 45 216 187 268 279 47 83 104 218 123 290 l12 46 -344 814
c-201 476 -357 830 -374 854 -45 58 -88 83 -156 91 l-59 7 0 73 0 74 435 0
435 0 0 -74z m1692 -1247 c105 -35 191 -110 220 -191 6 -16 15 -28 21 -28 7 0
28 25 47 56 84 136 208 190 416 182 97 -3 116 -7 176 -35 110 -52 175 -134
215 -270 14 -49 17 -130 22 -503 5 -403 8 -449 24 -473 26 -40 58 -57 131 -69
l66 -11 0 -53 0 -54 -240 0 -240 0 0 524 c0 502 -1 527 -21 591 -38 125 -122
185 -259 185 -140 0 -233 -75 -278 -225 -12 -39 -16 -130 -19 -405 -3 -195 -2
-378 2 -407 12 -95 55 -133 168 -148 l47 -6 0 -55 0 -54 -235 0 -235 0 0 488
c0 281 -4 514 -10 552 -6 36 -25 94 -43 130 -35 71 -72 102 -141 121 -55 15
-172 6 -220 -16 -88 -42 -147 -137 -172 -273 -17 -97 -20 -716 -3 -776 6 -22
24 -52 40 -67 30 -28 44 -32 132 -44 l47 -6 0 -55 0 -54 -365 0 -365 0 0 53 0
53 79 10 c90 12 122 29 148 77 17 29 18 72 18 532 0 464 -1 502 -18 533 -23
42 -85 71 -149 72 l-48 0 0 60 0 60 214 0 213 0 7 -47 c13 -98 28 -173 35
-173 3 0 20 23 36 51 50 85 144 157 232 178 21 5 84 9 141 10 79 1 117 -4 164
-20z"/>
</g>
</svg>
